<?xml version="1.0" encoding="utf-8" standalone="no"?>
<!DOCTYPE svg PUBLIC "-//W3C//DTD SVG 1.1//EN"
  "http://www.w3.org/Graphics/SVG/1.1/DTD/svg11.dtd">
<svg xmlns:xlink="http://www.w3.org/1999/xlink" width="720pt" height="576pt" viewBox="0 0 720 576" xmlns="http://www.w3.org/2000/svg" version="1.1">
 <metadata>
  <rdf:RDF xmlns:dc="http://purl.org/dc/elements/1.1/" xmlns:cc="http://creativecommons.org/ns#" xmlns:rdf="http://www.w3.org/1999/02/22-rdf-syntax-ns#">
   <cc:Work>
    <dc:type rdf:resource="http://purl.org/dc/dcmitype/StillImage"/>
    <dc:date>2025-03-13T21:19:40.864490</dc:date>
    <dc:format>image/svg+xml</dc:format>
    <dc:creator>
     <cc:Agent>
      <dc:title>Matplotlib v3.10.1, https://matplotlib.org/</dc:title>
     </cc:Agent>
    </dc:creator>
   </cc:Work>
  </rdf:RDF>
 </metadata>
 <defs>
  <style type="text/css">*{stroke-linejoin: round; stroke-linecap: butt}</style>
 </defs>
 <g id="figure_1">
  <g id="patch_1">
   <path d="M 0 576 
L 720 576 
L 720 0 
L 0 0 
z
" style="fill: #ffffff"/>
  </g>
  <g id="axes_1">
   <g id="patch_2">
    <path d="M 48.17 530.44 
L 567.66 530.44 
L 567.66 28.32 
L 48.17 28.32 
z
" style="fill: #ffffff"/>
   </g>
   <g id="line2d_1">
    <path d="M 465.336212 507.616364 
L 181.97803 181.564416 
L 119.009545 181.564416 
L 71.783182 181.564416 
L 71.783182 116.354026 
L 150.493788 116.354026 
L 150.493788 51.143636 
L 181.97803 51.143636 
L 229.204394 51.143636 
L 465.336212 507.616364 
" clip-path="url(#pfcab1ab18b)" style="fill: none; stroke: #1f77b4; stroke-width: 2; stroke-linecap: square"/>
   </g>
   <g id="line2d_2">
    <path d="M 465.336212 507.616364 
L 307.915 507.616364 
L 229.204394 507.616364 
L 229.204394 481.532208 
L 276.430758 442.405974 
L 276.430758 481.532208 
L 307.915 481.532208 
L 465.336212 507.616364 
" clip-path="url(#pfcab1ab18b)" style="fill: none; stroke: #aec7e8; stroke-width: 2; stroke-linecap: square"/>
   </g>
   <g id="line2d_3">
    <path d="M 465.336212 507.616364 
L 496.820455 311.985195 
L 496.820455 298.943117 
L 465.336212 298.943117 
L 433.85197 272.858961 
L 386.625606 298.943117 
L 386.625606 259.816883 
L 433.85197 246.774805 
L 465.336212 259.816883 
L 496.820455 272.858961 
L 544.046818 246.774805 
L 544.046818 272.858961 
L 465.336212 507.616364 
" clip-path="url(#pfcab1ab18b)" style="fill: none; stroke: #ff7f0e; stroke-width: 2; stroke-linecap: square"/>
   </g>
   <g id="matplotlib.axis_1">
    <g id="xtick_1">
     <g id="line2d_4">
      <path d="M 71.783182 530.44 
L 71.783182 28.32 
" clip-path="url(#pfcab1ab18b)" style="fill: none; stroke-dasharray: 2.96,1.28; stroke-dashoffset: 0; stroke: #b0b0b0; stroke-opacity: 0.7; stroke-width: 0.8"/>
     </g>
     <g id="line2d_5">
      <defs>
       <path id="m5067a70814" d="M 0 0 
L 0 3.5 
" style="stroke: #000000; stroke-width: 0.8"/>
      </defs>
      <g>
       <use xlink:href="#m5067a70814" x="71.783182" y="530.44" style="stroke: #000000; stroke-width: 0.8"/>
      </g>
     </g>
     <g id="text_1">
      <!-- 15 -->
      <g transform="translate(65.420682 545.038437) scale(0.1 -0.1)">
       <defs>
        <path id="DejaVuSans-31" d="M 794 531 
L 1825 531 
L 1825 4091 
L 703 3866 
L 703 4441 
L 1819 4666 
L 2450 4666 
L 2450 531 
L 3481 531 
L 3481 0 
L 794 0 
L 794 531 
z
" transform="scale(0.015625)"/>
        <path id="DejaVuSans-35" d="M 691 4666 
L 3169 4666 
L 3169 4134 
L 1269 4134 
L 1269 2991 
Q 1406 3038 1543 3061 
Q 1681 3084 1819 3084 
Q 2600 3084 3056 2656 
Q 3513 2228 3513 1497 
Q 3513 744 3044 326 
Q 2575 -91 1722 -91 
Q 1428 -91 1123 -41 
Q 819 9 494 109 
L 494 744 
Q 775 591 1075 516 
Q 1375 441 1709 441 
Q 2250 441 2565 725 
Q 2881 1009 2881 1497 
Q 2881 1984 2565 2268 
Q 2250 2553 1709 2553 
Q 1456 2553 1204 2497 
Q 953 2441 691 2322 
L 691 4666 
z
" transform="scale(0.015625)"/>
       </defs>
       <use xlink:href="#DejaVuSans-31"/>
       <use xlink:href="#DejaVuSans-35" transform="translate(63.623047 0)"/>
      </g>
     </g>
    </g>
    <g id="xtick_2">
     <g id="line2d_6">
      <path d="M 150.493788 530.44 
L 150.493788 28.32 
" clip-path="url(#pfcab1ab18b)" style="fill: none; stroke-dasharray: 2.96,1.28; stroke-dashoffset: 0; stroke: #b0b0b0; stroke-opacity: 0.7; stroke-width: 0.8"/>
     </g>
     <g id="line2d_7">
      <g>
       <use xlink:href="#m5067a70814" x="150.493788" y="530.44" style="stroke: #000000; stroke-width: 0.8"/>
      </g>
     </g>
     <g id="text_2">
      <!-- 20 -->
      <g transform="translate(144.131288 545.038437) scale(0.1 -0.1)">
       <defs>
        <path id="DejaVuSans-32" d="M 1228 531 
L 3431 531 
L 3431 0 
L 469 0 
L 469 531 
Q 828 903 1448 1529 
Q 2069 2156 2228 2338 
Q 2531 2678 2651 2914 
Q 2772 3150 2772 3378 
Q 2772 3750 2511 3984 
Q 2250 4219 1831 4219 
Q 1534 4219 1204 4116 
Q 875 4013 500 3803 
L 500 4441 
Q 881 4594 1212 4672 
Q 1544 4750 1819 4750 
Q 2544 4750 2975 4387 
Q 3406 4025 3406 3419 
Q 3406 3131 3298 2873 
Q 3191 2616 2906 2266 
Q 2828 2175 2409 1742 
Q 1991 1309 1228 531 
z
" transform="scale(0.015625)"/>
        <path id="DejaVuSans-30" d="M 2034 4250 
Q 1547 4250 1301 3770 
Q 1056 3291 1056 2328 
Q 1056 1369 1301 889 
Q 1547 409 2034 409 
Q 2525 409 2770 889 
Q 3016 1369 3016 2328 
Q 3016 3291 2770 3770 
Q 2525 4250 2034 4250 
z
M 2034 4750 
Q 2819 4750 3233 4129 
Q 3647 3509 3647 2328 
Q 3647 1150 3233 529 
Q 2819 -91 2034 -91 
Q 1250 -91 836 529 
Q 422 1150 422 2328 
Q 422 3509 836 4129 
Q 1250 4750 2034 4750 
z
" transform="scale(0.015625)"/>
       </defs>
       <use xlink:href="#DejaVuSans-32"/>
       <use xlink:href="#DejaVuSans-30" transform="translate(63.623047 0)"/>
      </g>
     </g>
    </g>
    <g id="xtick_3">
     <g id="line2d_8">
      <path d="M 229.204394 530.44 
L 229.204394 28.32 
" clip-path="url(#pfcab1ab18b)" style="fill: none; stroke-dasharray: 2.96,1.28; stroke-dashoffset: 0; stroke: #b0b0b0; stroke-opacity: 0.7; stroke-width: 0.8"/>
     </g>
     <g id="line2d_9">
      <g>
       <use xlink:href="#m5067a70814" x="229.204394" y="530.44" style="stroke: #000000; stroke-width: 0.8"/>
      </g>
     </g>
     <g id="text_3">
      <!-- 25 -->
      <g transform="translate(222.841894 545.038437) scale(0.1 -0.1)">
       <use xlink:href="#DejaVuSans-32"/>
       <use xlink:href="#DejaVuSans-35" transform="translate(63.623047 0)"/>
      </g>
     </g>
    </g>
    <g id="xtick_4">
     <g id="line2d_10">
      <path d="M 307.915 530.44 
L 307.915 28.32 
" clip-path="url(#pfcab1ab18b)" style="fill: none; stroke-dasharray: 2.96,1.28; stroke-dashoffset: 0; stroke: #b0b0b0; stroke-opacity: 0.7; stroke-width: 0.8"/>
     </g>
     <g id="line2d_11">
      <g>
       <use xlink:href="#m5067a70814" x="307.915" y="530.44" style="stroke: #000000; stroke-width: 0.8"/>
      </g>
     </g>
     <g id="text_4">
      <!-- 30 -->
      <g transform="translate(301.5525 545.038437) scale(0.1 -0.1)">
       <defs>
        <path id="DejaVuSans-33" d="M 2597 2516 
Q 3050 2419 3304 2112 
Q 3559 1806 3559 1356 
Q 3559 666 3084 287 
Q 2609 -91 1734 -91 
Q 1441 -91 1130 -33 
Q 819 25 488 141 
L 488 750 
Q 750 597 1062 519 
Q 1375 441 1716 441 
Q 2309 441 2620 675 
Q 2931 909 2931 1356 
Q 2931 1769 2642 2001 
Q 2353 2234 1838 2234 
L 1294 2234 
L 1294 2753 
L 1863 2753 
Q 2328 2753 2575 2939 
Q 2822 3125 2822 3475 
Q 2822 3834 2567 4026 
Q 2313 4219 1838 4219 
Q 1578 4219 1281 4162 
Q 984 4106 628 3988 
L 628 4550 
Q 988 4650 1302 4700 
Q 1616 4750 1894 4750 
Q 2613 4750 3031 4423 
Q 3450 4097 3450 3541 
Q 3450 3153 3228 2886 
Q 3006 2619 2597 2516 
z
" transform="scale(0.015625)"/>
       </defs>
       <use xlink:href="#DejaVuSans-33"/>
       <use xlink:href="#DejaVuSans-30" transform="translate(63.623047 0)"/>
      </g>
     </g>
    </g>
    <g id="xtick_5">
     <g id="line2d_12">
      <path d="M 386.625606 530.44 
L 386.625606 28.32 
" clip-path="url(#pfcab1ab18b)" style="fill: none; stroke-dasharray: 2.96,1.28; stroke-dashoffset: 0; stroke: #b0b0b0; stroke-opacity: 0.7; stroke-width: 0.8"/>
     </g>
     <g id="line2d_13">
      <g>
       <use xlink:href="#m5067a70814" x="386.625606" y="530.44" style="stroke: #000000; stroke-width: 0.8"/>
      </g>
     </g>
     <g id="text_5">
      <!-- 35 -->
      <g transform="translate(380.263106 545.038437) scale(0.1 -0.1)">
       <use xlink:href="#DejaVuSans-33"/>
       <use xlink:href="#DejaVuSans-35" transform="translate(63.623047 0)"/>
      </g>
     </g>
    </g>
    <g id="xtick_6">
     <g id="line2d_14">
      <path d="M 465.336212 530.44 
L 465.336212 28.32 
" clip-path="url(#pfcab1ab18b)" style="fill: none; stroke-dasharray: 2.96,1.28; stroke-dashoffset: 0; stroke: #b0b0b0; stroke-opacity: 0.7; stroke-width: 0.8"/>
     </g>
     <g id="line2d_15">
      <g>
       <use xlink:href="#m5067a70814" x="465.336212" y="530.44" style="stroke: #000000; stroke-width: 0.8"/>
      </g>
     </g>
     <g id="text_6">
      <!-- 40 -->
      <g transform="translate(458.973712 545.038437) scale(0.1 -0.1)">
       <defs>
        <path id="DejaVuSans-34" d="M 2419 4116 
L 825 1625 
L 2419 1625 
L 2419 4116 
z
M 2253 4666 
L 3047 4666 
L 3047 1625 
L 3713 1625 
L 3713 1100 
L 3047 1100 
L 3047 0 
L 2419 0 
L 2419 1100 
L 313 1100 
L 313 1709 
L 2253 4666 
z
" transform="scale(0.015625)"/>
       </defs>
       <use xlink:href="#DejaVuSans-34"/>
       <use xlink:href="#DejaVuSans-30" transform="translate(63.623047 0)"/>
      </g>
     </g>
    </g>
    <g id="xtick_7">
     <g id="line2d_16">
      <path d="M 544.046818 530.44 
L 544.046818 28.32 
" clip-path="url(#pfcab1ab18b)" style="fill: none; stroke-dasharray: 2.96,1.28; stroke-dashoffset: 0; stroke: #b0b0b0; stroke-opacity: 0.7; stroke-width: 0.8"/>
     </g>
     <g id="line2d_17">
      <g>
       <use xlink:href="#m5067a70814" x="544.046818" y="530.44" style="stroke: #000000; stroke-width: 0.8"/>
      </g>
     </g>
     <g id="text_7">
      <!-- 45 -->
      <g transform="translate(537.684318 545.038437) scale(0.1 -0.1)">
       <use xlink:href="#DejaVuSans-34"/>
       <use xlink:href="#DejaVuSans-35" transform="translate(63.623047 0)"/>
      </g>
     </g>
    </g>
    <g id="text_8">
     <!-- X Coordinate -->
     <g transform="translate(262.52 561.755937) scale(0.14 -0.14)">
      <defs>
       <path id="DejaVuSans-58" d="M 403 4666 
L 1081 4666 
L 2241 2931 
L 3406 4666 
L 4084 4666 
L 2584 2425 
L 4184 0 
L 3506 0 
L 2194 1984 
L 872 0 
L 191 0 
L 1856 2491 
L 403 4666 
z
" transform="scale(0.015625)"/>
       <path id="DejaVuSans-20" transform="scale(0.015625)"/>
       <path id="DejaVuSans-43" d="M 4122 4306 
L 4122 3641 
Q 3803 3938 3442 4084 
Q 3081 4231 2675 4231 
Q 1875 4231 1450 3742 
Q 1025 3253 1025 2328 
Q 1025 1406 1450 917 
Q 1875 428 2675 428 
Q 3081 428 3442 575 
Q 3803 722 4122 1019 
L 4122 359 
Q 3791 134 3420 21 
Q 3050 -91 2638 -91 
Q 1578 -91 968 557 
Q 359 1206 359 2328 
Q 359 3453 968 4101 
Q 1578 4750 2638 4750 
Q 3056 4750 3426 4639 
Q 3797 4528 4122 4306 
z
" transform="scale(0.015625)"/>
       <path id="DejaVuSans-6f" d="M 1959 3097 
Q 1497 3097 1228 2736 
Q 959 2375 959 1747 
Q 959 1119 1226 758 
Q 1494 397 1959 397 
Q 2419 397 2687 759 
Q 2956 1122 2956 1747 
Q 2956 2369 2687 2733 
Q 2419 3097 1959 3097 
z
M 1959 3584 
Q 2709 3584 3137 3096 
Q 3566 2609 3566 1747 
Q 3566 888 3137 398 
Q 2709 -91 1959 -91 
Q 1206 -91 779 398 
Q 353 888 353 1747 
Q 353 2609 779 3096 
Q 1206 3584 1959 3584 
z
" transform="scale(0.015625)"/>
       <path id="DejaVuSans-72" d="M 2631 2963 
Q 2534 3019 2420 3045 
Q 2306 3072 2169 3072 
Q 1681 3072 1420 2755 
Q 1159 2438 1159 1844 
L 1159 0 
L 581 0 
L 581 3500 
L 1159 3500 
L 1159 2956 
Q 1341 3275 1631 3429 
Q 1922 3584 2338 3584 
Q 2397 3584 2469 3576 
Q 2541 3569 2628 3553 
L 2631 2963 
z
" transform="scale(0.015625)"/>
       <path id="DejaVuSans-64" d="M 2906 2969 
L 2906 4863 
L 3481 4863 
L 3481 0 
L 2906 0 
L 2906 525 
Q 2725 213 2448 61 
Q 2172 -91 1784 -91 
Q 1150 -91 751 415 
Q 353 922 353 1747 
Q 353 2572 751 3078 
Q 1150 3584 1784 3584 
Q 2172 3584 2448 3432 
Q 2725 3281 2906 2969 
z
M 947 1747 
Q 947 1113 1208 752 
Q 1469 391 1925 391 
Q 2381 391 2643 752 
Q 2906 1113 2906 1747 
Q 2906 2381 2643 2742 
Q 2381 3103 1925 3103 
Q 1469 3103 1208 2742 
Q 947 2381 947 1747 
z
" transform="scale(0.015625)"/>
       <path id="DejaVuSans-69" d="M 603 3500 
L 1178 3500 
L 1178 0 
L 603 0 
L 603 3500 
z
M 603 4863 
L 1178 4863 
L 1178 4134 
L 603 4134 
L 603 4863 
z
" transform="scale(0.015625)"/>
       <path id="DejaVuSans-6e" d="M 3513 2113 
L 3513 0 
L 2938 0 
L 2938 2094 
Q 2938 2591 2744 2837 
Q 2550 3084 2163 3084 
Q 1697 3084 1428 2787 
Q 1159 2491 1159 1978 
L 1159 0 
L 581 0 
L 581 3500 
L 1159 3500 
L 1159 2956 
Q 1366 3272 1645 3428 
Q 1925 3584 2291 3584 
Q 2894 3584 3203 3211 
Q 3513 2838 3513 2113 
z
" transform="scale(0.015625)"/>
       <path id="DejaVuSans-61" d="M 2194 1759 
Q 1497 1759 1228 1600 
Q 959 1441 959 1056 
Q 959 750 1161 570 
Q 1363 391 1709 391 
Q 2188 391 2477 730 
Q 2766 1069 2766 1631 
L 2766 1759 
L 2194 1759 
z
M 3341 1997 
L 3341 0 
L 2766 0 
L 2766 531 
Q 2569 213 2275 61 
Q 1981 -91 1556 -91 
Q 1019 -91 701 211 
Q 384 513 384 1019 
Q 384 1609 779 1909 
Q 1175 2209 1959 2209 
L 2766 2209 
L 2766 2266 
Q 2766 2663 2505 2880 
Q 2244 3097 1772 3097 
Q 1472 3097 1187 3025 
Q 903 2953 641 2809 
L 641 3341 
Q 956 3463 1253 3523 
Q 1550 3584 1831 3584 
Q 2591 3584 2966 3190 
Q 3341 2797 3341 1997 
z
" transform="scale(0.015625)"/>
       <path id="DejaVuSans-74" d="M 1172 4494 
L 1172 3500 
L 2356 3500 
L 2356 3053 
L 1172 3053 
L 1172 1153 
Q 1172 725 1289 603 
Q 1406 481 1766 481 
L 2356 481 
L 2356 0 
L 1766 0 
Q 1100 0 847 248 
Q 594 497 594 1153 
L 594 3053 
L 172 3053 
L 172 3500 
L 594 3500 
L 594 4494 
L 1172 4494 
z
" transform="scale(0.015625)"/>
       <path id="DejaVuSans-65" d="M 3597 1894 
L 3597 1613 
L 953 1613 
Q 991 1019 1311 708 
Q 1631 397 2203 397 
Q 2534 397 2845 478 
Q 3156 559 3463 722 
L 3463 178 
Q 3153 47 2828 -22 
Q 2503 -91 2169 -91 
Q 1331 -91 842 396 
Q 353 884 353 1716 
Q 353 2575 817 3079 
Q 1281 3584 2069 3584 
Q 2775 3584 3186 3129 
Q 3597 2675 3597 1894 
z
M 3022 2063 
Q 3016 2534 2758 2815 
Q 2500 3097 2075 3097 
Q 1594 3097 1305 2825 
Q 1016 2553 972 2059 
L 3022 2063 
z
" transform="scale(0.015625)"/>
      </defs>
      <use xlink:href="#DejaVuSans-58"/>
      <use xlink:href="#DejaVuSans-20" transform="translate(68.505859 0)"/>
      <use xlink:href="#DejaVuSans-43" transform="translate(100.292969 0)"/>
      <use xlink:href="#DejaVuSans-6f" transform="translate(170.117188 0)"/>
      <use xlink:href="#DejaVuSans-6f" transform="translate(231.298828 0)"/>
      <use xlink:href="#DejaVuSans-72" transform="translate(292.480469 0)"/>
      <use xlink:href="#DejaVuSans-64" transform="translate(331.84375 0)"/>
      <use xlink:href="#DejaVuSans-69" transform="translate(395.320312 0)"/>
      <use xlink:href="#DejaVuSans-6e" transform="translate(423.103516 0)"/>
      <use xlink:href="#DejaVuSans-61" transform="translate(486.482422 0)"/>
      <use xlink:href="#DejaVuSans-74" transform="translate(547.761719 0)"/>
      <use xlink:href="#DejaVuSans-65" transform="translate(586.970703 0)"/>
     </g>
    </g>
   </g>
   <g id="matplotlib.axis_2">
    <g id="ytick_1">
     <g id="line2d_18">
      <path d="M 48.17 507.616364 
L 567.66 507.616364 
" clip-path="url(#pfcab1ab18b)" style="fill: none; stroke-dasharray: 2.96,1.28; stroke-dashoffset: 0; stroke: #b0b0b0; stroke-opacity: 0.7; stroke-width: 0.8"/>
     </g>
     <g id="line2d_19">
      <defs>
       <path id="mc0b994dd84" d="M 0 0 
L -3.5 0 
" style="stroke: #000000; stroke-width: 0.8"/>
      </defs>
      <g>
       <use xlink:href="#mc0b994dd84" x="48.17" y="507.616364" style="stroke: #000000; stroke-width: 0.8"/>
      </g>
     </g>
     <g id="text_9">
      <!-- 50 -->
      <g transform="translate(28.445 511.415582) scale(0.1 -0.1)">
       <use xlink:href="#DejaVuSans-35"/>
       <use xlink:href="#DejaVuSans-30" transform="translate(63.623047 0)"/>
      </g>
     </g>
    </g>
    <g id="ytick_2">
     <g id="line2d_20">
      <path d="M 48.17 442.405974 
L 567.66 442.405974 
" clip-path="url(#pfcab1ab18b)" style="fill: none; stroke-dasharray: 2.96,1.28; stroke-dashoffset: 0; stroke: #b0b0b0; stroke-opacity: 0.7; stroke-width: 0.8"/>
     </g>
     <g id="line2d_21">
      <g>
       <use xlink:href="#mc0b994dd84" x="48.17" y="442.405974" style="stroke: #000000; stroke-width: 0.8"/>
      </g>
     </g>
     <g id="text_10">
      <!-- 55 -->
      <g transform="translate(28.445 446.205193) scale(0.1 -0.1)">
       <use xlink:href="#DejaVuSans-35"/>
       <use xlink:href="#DejaVuSans-35" transform="translate(63.623047 0)"/>
      </g>
     </g>
    </g>
    <g id="ytick_3">
     <g id="line2d_22">
      <path d="M 48.17 377.195584 
L 567.66 377.195584 
" clip-path="url(#pfcab1ab18b)" style="fill: none; stroke-dasharray: 2.96,1.28; stroke-dashoffset: 0; stroke: #b0b0b0; stroke-opacity: 0.7; stroke-width: 0.8"/>
     </g>
     <g id="line2d_23">
      <g>
       <use xlink:href="#mc0b994dd84" x="48.17" y="377.195584" style="stroke: #000000; stroke-width: 0.8"/>
      </g>
     </g>
     <g id="text_11">
      <!-- 60 -->
      <g transform="translate(28.445 380.994803) scale(0.1 -0.1)">
       <defs>
        <path id="DejaVuSans-36" d="M 2113 2584 
Q 1688 2584 1439 2293 
Q 1191 2003 1191 1497 
Q 1191 994 1439 701 
Q 1688 409 2113 409 
Q 2538 409 2786 701 
Q 3034 994 3034 1497 
Q 3034 2003 2786 2293 
Q 2538 2584 2113 2584 
z
M 3366 4563 
L 3366 3988 
Q 3128 4100 2886 4159 
Q 2644 4219 2406 4219 
Q 1781 4219 1451 3797 
Q 1122 3375 1075 2522 
Q 1259 2794 1537 2939 
Q 1816 3084 2150 3084 
Q 2853 3084 3261 2657 
Q 3669 2231 3669 1497 
Q 3669 778 3244 343 
Q 2819 -91 2113 -91 
Q 1303 -91 875 529 
Q 447 1150 447 2328 
Q 447 3434 972 4092 
Q 1497 4750 2381 4750 
Q 2619 4750 2861 4703 
Q 3103 4656 3366 4563 
z
" transform="scale(0.015625)"/>
       </defs>
       <use xlink:href="#DejaVuSans-36"/>
       <use xlink:href="#DejaVuSans-30" transform="translate(63.623047 0)"/>
      </g>
     </g>
    </g>
    <g id="ytick_4">
     <g id="line2d_24">
      <path d="M 48.17 311.985195 
L 567.66 311.985195 
" clip-path="url(#pfcab1ab18b)" style="fill: none; stroke-dasharray: 2.96,1.28; stroke-dashoffset: 0; stroke: #b0b0b0; stroke-opacity: 0.7; stroke-width: 0.8"/>
     </g>
     <g id="line2d_25">
      <g>
       <use xlink:href="#mc0b994dd84" x="48.17" y="311.985195" style="stroke: #000000; stroke-width: 0.8"/>
      </g>
     </g>
     <g id="text_12">
      <!-- 65 -->
      <g transform="translate(28.445 315.784414) scale(0.1 -0.1)">
       <use xlink:href="#DejaVuSans-36"/>
       <use xlink:href="#DejaVuSans-35" transform="translate(63.623047 0)"/>
      </g>
     </g>
    </g>
    <g id="ytick_5">
     <g id="line2d_26">
      <path d="M 48.17 246.774805 
L 567.66 246.774805 
" clip-path="url(#pfcab1ab18b)" style="fill: none; stroke-dasharray: 2.96,1.28; stroke-dashoffset: 0; stroke: #b0b0b0; stroke-opacity: 0.7; stroke-width: 0.8"/>
     </g>
     <g id="line2d_27">
      <g>
       <use xlink:href="#mc0b994dd84" x="48.17" y="246.774805" style="stroke: #000000; stroke-width: 0.8"/>
      </g>
     </g>
     <g id="text_13">
      <!-- 70 -->
      <g transform="translate(28.445 250.574024) scale(0.1 -0.1)">
       <defs>
        <path id="DejaVuSans-37" d="M 525 4666 
L 3525 4666 
L 3525 4397 
L 1831 0 
L 1172 0 
L 2766 4134 
L 525 4134 
L 525 4666 
z
" transform="scale(0.015625)"/>
       </defs>
       <use xlink:href="#DejaVuSans-37"/>
       <use xlink:href="#DejaVuSans-30" transform="translate(63.623047 0)"/>
      </g>
     </g>
    </g>
    <g id="ytick_6">
     <g id="line2d_28">
      <path d="M 48.17 181.564416 
L 567.66 181.564416 
" clip-path="url(#pfcab1ab18b)" style="fill: none; stroke-dasharray: 2.96,1.28; stroke-dashoffset: 0; stroke: #b0b0b0; stroke-opacity: 0.7; stroke-width: 0.8"/>
     </g>
     <g id="line2d_29">
      <g>
       <use xlink:href="#mc0b994dd84" x="48.17" y="181.564416" style="stroke: #000000; stroke-width: 0.8"/>
      </g>
     </g>
     <g id="text_14">
      <!-- 75 -->
      <g transform="translate(28.445 185.363634) scale(0.1 -0.1)">
       <use xlink:href="#DejaVuSans-37"/>
       <use xlink:href="#DejaVuSans-35" transform="translate(63.623047 0)"/>
      </g>
     </g>
    </g>
    <g id="ytick_7">
     <g id="line2d_30">
      <path d="M 48.17 116.354026 
L 567.66 116.354026 
" clip-path="url(#pfcab1ab18b)" style="fill: none; stroke-dasharray: 2.96,1.28; stroke-dashoffset: 0; stroke: #b0b0b0; stroke-opacity: 0.7; stroke-width: 0.8"/>
     </g>
     <g id="line2d_31">
      <g>
       <use xlink:href="#mc0b994dd84" x="48.17" y="116.354026" style="stroke: #000000; stroke-width: 0.8"/>
      </g>
     </g>
     <g id="text_15">
      <!-- 80 -->
      <g transform="translate(28.445 120.153245) scale(0.1 -0.1)">
       <defs>
        <path id="DejaVuSans-38" d="M 2034 2216 
Q 1584 2216 1326 1975 
Q 1069 1734 1069 1313 
Q 1069 891 1326 650 
Q 1584 409 2034 409 
Q 2484 409 2743 651 
Q 3003 894 3003 1313 
Q 3003 1734 2745 1975 
Q 2488 2216 2034 2216 
z
M 1403 2484 
Q 997 2584 770 2862 
Q 544 3141 544 3541 
Q 544 4100 942 4425 
Q 1341 4750 2034 4750 
Q 2731 4750 3128 4425 
Q 3525 4100 3525 3541 
Q 3525 3141 3298 2862 
Q 3072 2584 2669 2484 
Q 3125 2378 3379 2068 
Q 3634 1759 3634 1313 
Q 3634 634 3220 271 
Q 2806 -91 2034 -91 
Q 1263 -91 848 271 
Q 434 634 434 1313 
Q 434 1759 690 2068 
Q 947 2378 1403 2484 
z
M 1172 3481 
Q 1172 3119 1398 2916 
Q 1625 2713 2034 2713 
Q 2441 2713 2670 2916 
Q 2900 3119 2900 3481 
Q 2900 3844 2670 4047 
Q 2441 4250 2034 4250 
Q 1625 4250 1398 4047 
Q 1172 3844 1172 3481 
z
" transform="scale(0.015625)"/>
       </defs>
       <use xlink:href="#DejaVuSans-38"/>
       <use xlink:href="#DejaVuSans-30" transform="translate(63.623047 0)"/>
      </g>
     </g>
    </g>
    <g id="ytick_8">
     <g id="line2d_32">
      <path d="M 48.17 51.143636 
L 567.66 51.143636 
" clip-path="url(#pfcab1ab18b)" style="fill: none; stroke-dasharray: 2.96,1.28; stroke-dashoffset: 0; stroke: #b0b0b0; stroke-opacity: 0.7; stroke-width: 0.8"/>
     </g>
     <g id="line2d_33">
      <g>
       <use xlink:href="#mc0b994dd84" x="48.17" y="51.143636" style="stroke: #000000; stroke-width: 0.8"/>
      </g>
     </g>
     <g id="text_16">
      <!-- 85 -->
      <g transform="translate(28.445 54.942855) scale(0.1 -0.1)">
       <use xlink:href="#DejaVuSans-38"/>
       <use xlink:href="#DejaVuSans-35" transform="translate(63.623047 0)"/>
      </g>
     </g>
    </g>
    <g id="text_17">
     <!-- Y Coordinate -->
     <g transform="translate(21.533437 324.255469) rotate(-90) scale(0.14 -0.14)">
      <defs>
       <path id="DejaVuSans-59" d="M -13 4666 
L 666 4666 
L 1959 2747 
L 3244 4666 
L 3922 4666 
L 2272 2222 
L 2272 0 
L 1638 0 
L 1638 2222 
L -13 4666 
z
" transform="scale(0.015625)"/>
      </defs>
      <use xlink:href="#DejaVuSans-59"/>
      <use xlink:href="#DejaVuSans-20" transform="translate(61.083984 0)"/>
      <use xlink:href="#DejaVuSans-43" transform="translate(92.871094 0)"/>
      <use xlink:href="#DejaVuSans-6f" transform="translate(162.695312 0)"/>
      <use xlink:href="#DejaVuSans-6f" transform="translate(223.876953 0)"/>
      <use xlink:href="#DejaVuSans-72" transform="translate(285.058594 0)"/>
      <use xlink:href="#DejaVuSans-64" transform="translate(324.421875 0)"/>
      <use xlink:href="#DejaVuSans-69" transform="translate(387.898438 0)"/>
      <use xlink:href="#DejaVuSans-6e" transform="translate(415.681641 0)"/>
      <use xlink:href="#DejaVuSans-61" transform="translate(479.060547 0)"/>
      <use xlink:href="#DejaVuSans-74" transform="translate(540.339844 0)"/>
      <use xlink:href="#DejaVuSans-65" transform="translate(579.548828 0)"/>
     </g>
    </g>
   </g>
   <g id="patch_3">
    <path d="M 48.17 530.44 
L 48.17 28.32 
" style="fill: none; stroke: #000000; stroke-width: 0.8; stroke-linejoin: miter; stroke-linecap: square"/>
   </g>
   <g id="patch_4">
    <path d="M 567.66 530.44 
L 567.66 28.32 
" style="fill: none; stroke: #000000; stroke-width: 0.8; stroke-linejoin: miter; stroke-linecap: square"/>
   </g>
   <g id="patch_5">
    <path d="M 48.17 530.44 
L 567.66 530.44 
" style="fill: none; stroke: #000000; stroke-width: 0.8; stroke-linejoin: miter; stroke-linecap: square"/>
   </g>
   <g id="patch_6">
    <path d="M 48.17 28.32 
L 567.66 28.32 
" style="fill: none; stroke: #000000; stroke-width: 0.8; stroke-linejoin: miter; stroke-linecap: square"/>
   </g>
   <g id="text_18">
    <!-- Depot -->
    <g transform="translate(429.047462 505.120739) scale(0.12 -0.12)">
     <defs>
      <path id="DejaVuSans-44" d="M 1259 4147 
L 1259 519 
L 2022 519 
Q 2988 519 3436 956 
Q 3884 1394 3884 2338 
Q 3884 3275 3436 3711 
Q 2988 4147 2022 4147 
L 1259 4147 
z
M 628 4666 
L 1925 4666 
Q 3281 4666 3915 4102 
Q 4550 3538 4550 2338 
Q 4550 1131 3912 565 
Q 3275 0 1925 0 
L 628 0 
L 628 4666 
z
" transform="scale(0.015625)"/>
      <path id="DejaVuSans-70" d="M 1159 525 
L 1159 -1331 
L 581 -1331 
L 581 3500 
L 1159 3500 
L 1159 2969 
Q 1341 3281 1617 3432 
Q 1894 3584 2278 3584 
Q 2916 3584 3314 3078 
Q 3713 2572 3713 1747 
Q 3713 922 3314 415 
Q 2916 -91 2278 -91 
Q 1894 -91 1617 61 
Q 1341 213 1159 525 
z
M 3116 1747 
Q 3116 2381 2855 2742 
Q 2594 3103 2138 3103 
Q 1681 3103 1420 2742 
Q 1159 2381 1159 1747 
Q 1159 1113 1420 752 
Q 1681 391 2138 391 
Q 2594 391 2855 752 
Q 3116 1113 3116 1747 
z
" transform="scale(0.015625)"/>
     </defs>
     <use xlink:href="#DejaVuSans-44"/>
     <use xlink:href="#DejaVuSans-65" transform="translate(77.001953 0)"/>
     <use xlink:href="#DejaVuSans-70" transform="translate(138.525391 0)"/>
     <use xlink:href="#DejaVuSans-6f" transform="translate(202.001953 0)"/>
     <use xlink:href="#DejaVuSans-74" transform="translate(263.183594 0)"/>
    </g>
   </g>
   <g id="text_19">
    <!-- 1 -->
    <g style="fill: #808080" transform="translate(537.684318 270.779274) scale(0.1 -0.1)">
     <use xlink:href="#DejaVuSans-31"/>
    </g>
   </g>
   <g id="text_20">
    <!-- 2 -->
    <g style="fill: #808080" transform="translate(537.684318 244.695118) scale(0.1 -0.1)">
     <use xlink:href="#DejaVuSans-32"/>
    </g>
   </g>
   <g id="text_21">
    <!-- 3 -->
    <g style="fill: #808080" transform="translate(490.457955 296.863429) scale(0.1 -0.1)">
     <use xlink:href="#DejaVuSans-33"/>
    </g>
   </g>
   <g id="text_22">
    <!-- 4 -->
    <g style="fill: #808080" transform="translate(490.457955 270.779274) scale(0.1 -0.1)">
     <use xlink:href="#DejaVuSans-34"/>
    </g>
   </g>
   <g id="text_23">
    <!-- 5 -->
    <g style="fill: #808080" transform="translate(490.457955 309.905507) scale(0.1 -0.1)">
     <use xlink:href="#DejaVuSans-35"/>
    </g>
   </g>
   <g id="text_24">
    <!-- 6 -->
    <g style="fill: #808080" transform="translate(458.973712 257.737196) scale(0.1 -0.1)">
     <use xlink:href="#DejaVuSans-36"/>
    </g>
   </g>
   <g id="text_25">
    <!-- 7 -->
    <g style="fill: #808080" transform="translate(458.973712 296.863429) scale(0.1 -0.1)">
     <use xlink:href="#DejaVuSans-37"/>
    </g>
   </g>
   <g id="text_26">
    <!-- 8 -->
    <g style="fill: #808080" transform="translate(427.48947 270.779274) scale(0.1 -0.1)">
     <use xlink:href="#DejaVuSans-38"/>
    </g>
   </g>
   <g id="text_27">
    <!-- 9 -->
    <g style="fill: #808080" transform="translate(427.48947 244.695118) scale(0.1 -0.1)">
     <defs>
      <path id="DejaVuSans-39" d="M 703 97 
L 703 672 
Q 941 559 1184 500 
Q 1428 441 1663 441 
Q 2288 441 2617 861 
Q 2947 1281 2994 2138 
Q 2813 1869 2534 1725 
Q 2256 1581 1919 1581 
Q 1219 1581 811 2004 
Q 403 2428 403 3163 
Q 403 3881 828 4315 
Q 1253 4750 1959 4750 
Q 2769 4750 3195 4129 
Q 3622 3509 3622 2328 
Q 3622 1225 3098 567 
Q 2575 -91 1691 -91 
Q 1453 -91 1209 -44 
Q 966 3 703 97 
z
M 1959 2075 
Q 2384 2075 2632 2365 
Q 2881 2656 2881 3163 
Q 2881 3666 2632 3958 
Q 2384 4250 1959 4250 
Q 1534 4250 1286 3958 
Q 1038 3666 1038 3163 
Q 1038 2656 1286 2365 
Q 1534 2075 1959 2075 
z
" transform="scale(0.015625)"/>
     </defs>
     <use xlink:href="#DejaVuSans-39"/>
    </g>
   </g>
   <g id="text_28">
    <!-- 10 -->
    <g style="fill: #808080" transform="translate(373.900606 296.863429) scale(0.1 -0.1)">
     <use xlink:href="#DejaVuSans-31"/>
     <use xlink:href="#DejaVuSans-30" transform="translate(63.623047 0)"/>
    </g>
   </g>
   <g id="text_29">
    <!-- 11 -->
    <g style="fill: #808080" transform="translate(373.900606 257.737196) scale(0.1 -0.1)">
     <use xlink:href="#DejaVuSans-31"/>
     <use xlink:href="#DejaVuSans-31" transform="translate(63.623047 0)"/>
    </g>
   </g>
   <g id="text_30">
    <!-- 12 -->
    <g style="fill: #808080" transform="translate(216.479394 49.063949) scale(0.1 -0.1)">
     <use xlink:href="#DejaVuSans-31"/>
     <use xlink:href="#DejaVuSans-32" transform="translate(63.623047 0)"/>
    </g>
   </g>
   <g id="text_31">
    <!-- 13 -->
    <g style="fill: #808080" transform="translate(169.25303 179.484728) scale(0.1 -0.1)">
     <use xlink:href="#DejaVuSans-31"/>
     <use xlink:href="#DejaVuSans-33" transform="translate(63.623047 0)"/>
    </g>
   </g>
   <g id="text_32">
    <!-- 14 -->
    <g style="fill: #808080" transform="translate(169.25303 49.063949) scale(0.1 -0.1)">
     <use xlink:href="#DejaVuSans-31"/>
     <use xlink:href="#DejaVuSans-34" transform="translate(63.623047 0)"/>
    </g>
   </g>
   <g id="text_33">
    <!-- 15 -->
    <g style="fill: #808080" transform="translate(137.768788 114.274338) scale(0.1 -0.1)">
     <use xlink:href="#DejaVuSans-31"/>
     <use xlink:href="#DejaVuSans-35" transform="translate(63.623047 0)"/>
    </g>
   </g>
   <g id="text_34">
    <!-- 16 -->
    <g style="fill: #808080" transform="translate(137.768788 49.063949) scale(0.1 -0.1)">
     <use xlink:href="#DejaVuSans-31"/>
     <use xlink:href="#DejaVuSans-36" transform="translate(63.623047 0)"/>
    </g>
   </g>
   <g id="text_35">
    <!-- 17 -->
    <g style="fill: #808080" transform="translate(106.284545 179.484728) scale(0.1 -0.1)">
     <use xlink:href="#DejaVuSans-31"/>
     <use xlink:href="#DejaVuSans-37" transform="translate(63.623047 0)"/>
    </g>
   </g>
   <g id="text_36">
    <!-- 18 -->
    <g style="fill: #808080" transform="translate(59.058182 179.484728) scale(0.1 -0.1)">
     <use xlink:href="#DejaVuSans-31"/>
     <use xlink:href="#DejaVuSans-38" transform="translate(63.623047 0)"/>
    </g>
   </g>
   <g id="text_37">
    <!-- 19 -->
    <g style="fill: #808080" transform="translate(59.058182 114.274338) scale(0.1 -0.1)">
     <use xlink:href="#DejaVuSans-31"/>
     <use xlink:href="#DejaVuSans-39" transform="translate(63.623047 0)"/>
    </g>
   </g>
   <g id="text_38">
    <!-- 20 -->
    <g style="fill: #808080" transform="translate(295.19 505.536676) scale(0.1 -0.1)">
     <use xlink:href="#DejaVuSans-32"/>
     <use xlink:href="#DejaVuSans-30" transform="translate(63.623047 0)"/>
    </g>
   </g>
   <g id="text_39">
    <!-- 21 -->
    <g style="fill: #808080" transform="translate(295.19 479.45252) scale(0.1 -0.1)">
     <use xlink:href="#DejaVuSans-32"/>
     <use xlink:href="#DejaVuSans-31" transform="translate(63.623047 0)"/>
    </g>
   </g>
   <g id="text_40">
    <!-- 22 -->
    <g style="fill: #808080" transform="translate(263.705758 479.45252) scale(0.1 -0.1)">
     <use xlink:href="#DejaVuSans-32"/>
     <use xlink:href="#DejaVuSans-32" transform="translate(63.623047 0)"/>
    </g>
   </g>
   <g id="text_41">
    <!-- 23 -->
    <g style="fill: #808080" transform="translate(263.705758 440.326287) scale(0.1 -0.1)">
     <use xlink:href="#DejaVuSans-32"/>
     <use xlink:href="#DejaVuSans-33" transform="translate(63.623047 0)"/>
    </g>
   </g>
   <g id="text_42">
    <!-- 24 -->
    <g style="fill: #808080" transform="translate(216.479394 505.536676) scale(0.1 -0.1)">
     <use xlink:href="#DejaVuSans-32"/>
     <use xlink:href="#DejaVuSans-34" transform="translate(63.623047 0)"/>
    </g>
   </g>
   <g id="text_43">
    <!-- 25 -->
    <g style="fill: #808080" transform="translate(216.479394 479.45252) scale(0.1 -0.1)">
     <use xlink:href="#DejaVuSans-32"/>
     <use xlink:href="#DejaVuSans-35" transform="translate(63.623047 0)"/>
    </g>
   </g>
   <g id="patch_7">
    <path d="M 464.023968 506.106403 
Q 394.497015 426.103778 326.070142 347.366981 
" style="fill: none; stroke: #1f77b4; stroke-width: 1.5; stroke-linecap: round"/>
    <path d="M 327.184395 351.698083 
L 326.070142 347.366981 
L 330.203575 349.074239 
" style="fill: none; stroke: #1f77b4; stroke-width: 1.5; stroke-linecap: round"/>
   </g>
   <g id="patch_8">
    <path d="M 179.975676 181.564416 
Q 166.233416 181.564416 154.168208 181.564416 
" style="fill: none; stroke: #1f77b4; stroke-width: 1.5; stroke-linecap: round"/>
    <path d="M 158.168208 183.564416 
L 154.168208 181.564416 
L 158.168208 179.564416 
" style="fill: none; stroke: #1f77b4; stroke-width: 1.5; stroke-linecap: round"/>
   </g>
   <g id="patch_9">
    <path d="M 117.011995 181.564416 
Q 107.202899 181.564416 99.070855 181.564416 
" style="fill: none; stroke: #1f77b4; stroke-width: 1.5; stroke-linecap: round"/>
    <path d="M 103.070855 183.564416 
L 99.070855 181.564416 
L 103.070855 179.564416 
" style="fill: none; stroke: #1f77b4; stroke-width: 1.5; stroke-linecap: round"/>
   </g>
   <g id="patch_10">
    <path d="M 71.783182 179.562412 
Q 71.783182 165.260127 71.783182 152.634893 
" style="fill: none; stroke: #1f77b4; stroke-width: 1.5; stroke-linecap: round"/>
    <path d="M 69.783182 156.634893 
L 71.783182 152.634893 
L 73.783182 156.634893 
" style="fill: none; stroke: #1f77b4; stroke-width: 1.5; stroke-linecap: round"/>
   </g>
   <g id="patch_11">
    <path d="M 73.786497 116.354026 
Q 91.461666 116.354026 107.459783 116.354026 
" style="fill: none; stroke: #1f77b4; stroke-width: 1.5; stroke-linecap: round"/>
    <path d="M 103.459783 114.354026 
L 107.459783 116.354026 
L 103.459783 118.354026 
" style="fill: none; stroke: #1f77b4; stroke-width: 1.5; stroke-linecap: round"/>
   </g>
   <g id="patch_12">
    <path d="M 150.493788 114.352022 
Q 150.493788 100.049738 150.493788 87.424504 
" style="fill: none; stroke: #1f77b4; stroke-width: 1.5; stroke-linecap: round"/>
    <path d="M 148.493788 91.424504 
L 150.493788 87.424504 
L 152.493788 91.424504 
" style="fill: none; stroke: #1f77b4; stroke-width: 1.5; stroke-linecap: round"/>
   </g>
   <g id="patch_13">
    <path d="M 152.496143 51.143636 
Q 158.364727 51.143636 162.55626 51.143636 
" style="fill: none; stroke: #1f77b4; stroke-width: 1.5; stroke-linecap: round"/>
    <path d="M 158.55626 49.143636 
L 162.55626 51.143636 
L 158.55626 53.143636 
" style="fill: none; stroke: #1f77b4; stroke-width: 1.5; stroke-linecap: round"/>
   </g>
   <g id="patch_14">
    <path d="M 183.975581 51.143636 
Q 193.784676 51.143636 201.916721 51.143636 
" style="fill: none; stroke: #1f77b4; stroke-width: 1.5; stroke-linecap: round"/>
    <path d="M 197.916721 49.143636 
L 201.916721 51.143636 
L 197.916721 53.143636 
" style="fill: none; stroke: #1f77b4; stroke-width: 1.5; stroke-linecap: round"/>
   </g>
   <g id="patch_15">
    <path d="M 230.124982 52.92325 
Q 288.237363 165.261845 345.579202 276.110888 
" style="fill: none; stroke: #1f77b4; stroke-width: 1.5; stroke-linecap: round"/>
    <path d="M 345.517751 271.639174 
L 345.579202 276.110888 
L 341.96496 273.477021 
" style="fill: none; stroke: #1f77b4; stroke-width: 1.5; stroke-linecap: round"/>
   </g>
   <g id="patch_16">
    <path d="M 463.332897 507.616364 
Q 425.978824 507.616364 390.301803 507.616364 
" style="fill: none; stroke: #aec7e8; stroke-width: 1.5; stroke-linecap: round"/>
    <path d="M 394.301803 509.616364 
L 390.301803 507.616364 
L 394.301803 505.616364 
" style="fill: none; stroke: #aec7e8; stroke-width: 1.5; stroke-linecap: round"/>
   </g>
   <g id="patch_17">
    <path d="M 305.911684 507.616364 
Q 288.236516 507.616364 272.238399 507.616364 
" style="fill: none; stroke: #aec7e8; stroke-width: 1.5; stroke-linecap: round"/>
    <path d="M 276.238399 509.616364 
L 272.238399 507.616364 
L 276.238399 505.616364 
" style="fill: none; stroke: #aec7e8; stroke-width: 1.5; stroke-linecap: round"/>
   </g>
   <g id="patch_18">
    <path d="M 229.204394 505.613564 
Q 229.204394 501.095168 229.204394 498.253823 
" style="fill: none; stroke: #aec7e8; stroke-width: 1.5; stroke-linecap: round"/>
    <path d="M 227.204394 502.253823 
L 229.204394 498.253823 
L 231.204394 502.253823 
" style="fill: none; stroke: #aec7e8; stroke-width: 1.5; stroke-linecap: round"/>
   </g>
   <g id="patch_19">
    <path d="M 230.746515 480.254587 
Q 241.012845 471.749108 249.987754 464.31355 
" style="fill: none; stroke: #aec7e8; stroke-width: 1.5; stroke-linecap: round"/>
    <path d="M 245.631579 465.32535 
L 249.987754 464.31355 
L 248.183488 468.40557 
" style="fill: none; stroke: #aec7e8; stroke-width: 1.5; stroke-linecap: round"/>
   </g>
   <g id="patch_20">
    <path d="M 276.430758 444.407182 
Q 276.430758 452.186987 276.430758 458.289742 
" style="fill: none; stroke: #aec7e8; stroke-width: 1.5; stroke-linecap: round"/>
    <path d="M 278.430758 454.289742 
L 276.430758 458.289742 
L 274.430758 454.289742 
" style="fill: none; stroke: #aec7e8; stroke-width: 1.5; stroke-linecap: round"/>
   </g>
   <g id="patch_21">
    <path d="M 278.433112 481.532208 
Q 284.301697 481.532208 288.49323 481.532208 
" style="fill: none; stroke: #aec7e8; stroke-width: 1.5; stroke-linecap: round"/>
    <path d="M 284.49323 479.532208 
L 288.49323 481.532208 
L 284.49323 483.532208 
" style="fill: none; stroke: #aec7e8; stroke-width: 1.5; stroke-linecap: round"/>
   </g>
   <g id="patch_22">
    <path d="M 309.889491 481.859374 
Q 347.271651 488.05347 382.999318 493.973422 
" style="fill: none; stroke: #aec7e8; stroke-width: 1.5; stroke-linecap: round"/>
    <path d="M 379.380058 491.346454 
L 382.999318 493.973422 
L 378.726188 495.292649 
" style="fill: none; stroke: #aec7e8; stroke-width: 1.5; stroke-linecap: round"/>
   </g>
   <g id="patch_23">
    <path d="M 465.653764 505.643216 
Q 473.207181 458.709144 480.494127 413.430818 
" style="fill: none; stroke: #ff7f0e; stroke-width: 1.5; stroke-linecap: round"/>
    <path d="M 477.883966 417.062218 
L 480.494127 413.430818 
L 481.83315 417.697786 
" style="fill: none; stroke: #ff7f0e; stroke-width: 1.5; stroke-linecap: round"/>
   </g>
   <g id="patch_24">
    <path d="M 496.820455 309.982395 
Q 496.820455 308.722671 496.820455 309.139998 
" style="fill: none; stroke: #ff7f0e; stroke-width: 1.5; stroke-linecap: round"/>
    <path d="M 494.820455 313.139998 
L 496.820455 309.139998 
L 498.820455 313.139998 
" style="fill: none; stroke: #ff7f0e; stroke-width: 1.5; stroke-linecap: round"/>
   </g>
   <g id="patch_25">
    <path d="M 494.8181 298.943117 
Q 488.949515 298.943117 484.757982 298.943117 
" style="fill: none; stroke: #ff7f0e; stroke-width: 1.5; stroke-linecap: round"/>
    <path d="M 488.757982 300.943117 
L 484.757982 298.943117 
L 488.757982 296.943117 
" style="fill: none; stroke: #ff7f0e; stroke-width: 1.5; stroke-linecap: round"/>
   </g>
   <g id="patch_26">
    <path d="M 463.795052 297.666292 
Q 457.465986 292.422769 452.428342 288.249167 
" style="fill: none; stroke: #ff7f0e; stroke-width: 1.5; stroke-linecap: round"/>
    <path d="M 454.232607 292.341187 
L 452.428342 288.249167 
L 456.784517 289.260967 
" style="fill: none; stroke: #ff7f0e; stroke-width: 1.5; stroke-linecap: round"/>
   </g>
   <g id="patch_27">
    <path d="M 432.102311 273.825336 
Q 422.04461 279.380425 413.454926 284.124695 
" style="fill: none; stroke: #ff7f0e; stroke-width: 1.5; stroke-linecap: round"/>
    <path d="M 417.923308 283.941494 
L 413.454926 284.124695 
L 415.989394 280.440069 
" style="fill: none; stroke: #ff7f0e; stroke-width: 1.5; stroke-linecap: round"/>
   </g>
   <g id="patch_28">
    <path d="M 386.625606 296.941909 
Q 386.625606 289.162104 386.625606 283.059349 
" style="fill: none; stroke: #ff7f0e; stroke-width: 1.5; stroke-linecap: round"/>
    <path d="M 384.625606 287.059349 
L 386.625606 283.059349 
L 388.625606 287.059349 
" style="fill: none; stroke: #ff7f0e; stroke-width: 1.5; stroke-linecap: round"/>
   </g>
   <g id="patch_29">
    <path d="M 388.553977 259.284342 
Q 398.431525 256.556549 406.692532 254.275182 
" style="fill: none; stroke: #ff7f0e; stroke-width: 1.5; stroke-linecap: round"/>
    <path d="M 402.304464 253.412131 
L 406.692532 254.275182 
L 403.36925 257.267806 
" style="fill: none; stroke: #ff7f0e; stroke-width: 1.5; stroke-linecap: round"/>
   </g>
   <g id="patch_30">
    <path d="M 435.700593 247.540581 
Q 441.723031 250.035325 446.196091 251.888252 
" style="fill: none; stroke: #ff7f0e; stroke-width: 1.5; stroke-linecap: round"/>
    <path d="M 443.26602 248.509689 
L 446.196091 251.888252 
L 441.735198 252.205171 
" style="fill: none; stroke: #ff7f0e; stroke-width: 1.5; stroke-linecap: round"/>
   </g>
   <g id="patch_31">
    <path d="M 467.184835 260.582659 
Q 473.207273 263.077403 477.680333 264.93033 
" style="fill: none; stroke: #ff7f0e; stroke-width: 1.5; stroke-linecap: round"/>
    <path d="M 474.750262 261.551767 
L 477.680333 264.93033 
L 473.219441 265.247249 
" style="fill: none; stroke: #ff7f0e; stroke-width: 1.5; stroke-linecap: round"/>
   </g>
   <g id="patch_32">
    <path d="M 498.570113 271.892586 
Q 508.627814 266.337498 517.217498 261.593227 
" style="fill: none; stroke: #ff7f0e; stroke-width: 1.5; stroke-linecap: round"/>
    <path d="M 512.749116 261.776428 
L 517.217498 261.593227 
L 514.68303 265.277853 
" style="fill: none; stroke: #ff7f0e; stroke-width: 1.5; stroke-linecap: round"/>
   </g>
   <g id="patch_33">
    <path d="M 544.046818 248.777605 
Q 544.046818 253.296001 544.046818 256.137346 
" style="fill: none; stroke: #ff7f0e; stroke-width: 1.5; stroke-linecap: round"/>
    <path d="M 546.046818 252.137346 
L 544.046818 256.137346 
L 542.046818 252.137346 
" style="fill: none; stroke: #ff7f0e; stroke-width: 1.5; stroke-linecap: round"/>
   </g>
   <g id="patch_34">
    <path d="M 543.411474 274.753899 
Q 524.369946 331.545986 505.861541 386.748016 
" style="fill: none; stroke: #ff7f0e; stroke-width: 1.5; stroke-linecap: round"/>
    <path d="M 509.029365 383.591294 
L 505.861541 386.748016 
L 505.236858 382.319724 
" style="fill: none; stroke: #ff7f0e; stroke-width: 1.5; stroke-linecap: round"/>
   </g>
   <g id="text_44">
    <g id="patch_35">
     <path d="M 541.6855 524.7165 
L 697.957375 524.7165 
Q 703.957375 524.7165 703.957375 518.7165 
L 703.957375 480.228 
Q 703.957375 474.228 697.957375 474.228 
L 541.6855 474.228 
Q 535.6855 474.228 535.6855 480.228 
L 535.6855 518.7165 
Q 535.6855 524.7165 541.6855 524.7165 
z
" style="fill: #ffffff; stroke: #000000; stroke-linejoin: miter"/>
    </g>
    <!-- Optimal Cost: 191.70 -->
    <g transform="translate(541.6855 489.346125) scale(0.12 -0.12)">
     <defs>
      <path id="DejaVuSans-4f" d="M 2522 4238 
Q 1834 4238 1429 3725 
Q 1025 3213 1025 2328 
Q 1025 1447 1429 934 
Q 1834 422 2522 422 
Q 3209 422 3611 934 
Q 4013 1447 4013 2328 
Q 4013 3213 3611 3725 
Q 3209 4238 2522 4238 
z
M 2522 4750 
Q 3503 4750 4090 4092 
Q 4678 3434 4678 2328 
Q 4678 1225 4090 567 
Q 3503 -91 2522 -91 
Q 1538 -91 948 565 
Q 359 1222 359 2328 
Q 359 3434 948 4092 
Q 1538 4750 2522 4750 
z
" transform="scale(0.015625)"/>
      <path id="DejaVuSans-6d" d="M 3328 2828 
Q 3544 3216 3844 3400 
Q 4144 3584 4550 3584 
Q 5097 3584 5394 3201 
Q 5691 2819 5691 2113 
L 5691 0 
L 5113 0 
L 5113 2094 
Q 5113 2597 4934 2840 
Q 4756 3084 4391 3084 
Q 3944 3084 3684 2787 
Q 3425 2491 3425 1978 
L 3425 0 
L 2847 0 
L 2847 2094 
Q 2847 2600 2669 2842 
Q 2491 3084 2119 3084 
Q 1678 3084 1418 2786 
Q 1159 2488 1159 1978 
L 1159 0 
L 581 0 
L 581 3500 
L 1159 3500 
L 1159 2956 
Q 1356 3278 1631 3431 
Q 1906 3584 2284 3584 
Q 2666 3584 2933 3390 
Q 3200 3197 3328 2828 
z
" transform="scale(0.015625)"/>
      <path id="DejaVuSans-6c" d="M 603 4863 
L 1178 4863 
L 1178 0 
L 603 0 
L 603 4863 
z
" transform="scale(0.015625)"/>
      <path id="DejaVuSans-73" d="M 2834 3397 
L 2834 2853 
Q 2591 2978 2328 3040 
Q 2066 3103 1784 3103 
Q 1356 3103 1142 2972 
Q 928 2841 928 2578 
Q 928 2378 1081 2264 
Q 1234 2150 1697 2047 
L 1894 2003 
Q 2506 1872 2764 1633 
Q 3022 1394 3022 966 
Q 3022 478 2636 193 
Q 2250 -91 1575 -91 
Q 1294 -91 989 -36 
Q 684 19 347 128 
L 347 722 
Q 666 556 975 473 
Q 1284 391 1588 391 
Q 1994 391 2212 530 
Q 2431 669 2431 922 
Q 2431 1156 2273 1281 
Q 2116 1406 1581 1522 
L 1381 1569 
Q 847 1681 609 1914 
Q 372 2147 372 2553 
Q 372 3047 722 3315 
Q 1072 3584 1716 3584 
Q 2034 3584 2315 3537 
Q 2597 3491 2834 3397 
z
" transform="scale(0.015625)"/>
      <path id="DejaVuSans-3a" d="M 750 794 
L 1409 794 
L 1409 0 
L 750 0 
L 750 794 
z
M 750 3309 
L 1409 3309 
L 1409 2516 
L 750 2516 
L 750 3309 
z
" transform="scale(0.015625)"/>
      <path id="DejaVuSans-2e" d="M 684 794 
L 1344 794 
L 1344 0 
L 684 0 
L 684 794 
z
" transform="scale(0.015625)"/>
     </defs>
     <use xlink:href="#DejaVuSans-4f"/>
     <use xlink:href="#DejaVuSans-70" transform="translate(78.710938 0)"/>
     <use xlink:href="#DejaVuSans-74" transform="translate(142.1875 0)"/>
     <use xlink:href="#DejaVuSans-69" transform="translate(181.396484 0)"/>
     <use xlink:href="#DejaVuSans-6d" transform="translate(209.179688 0)"/>
     <use xlink:href="#DejaVuSans-61" transform="translate(306.591797 0)"/>
     <use xlink:href="#DejaVuSans-6c" transform="translate(367.871094 0)"/>
     <use xlink:href="#DejaVuSans-20" transform="translate(395.654297 0)"/>
     <use xlink:href="#DejaVuSans-43" transform="translate(427.441406 0)"/>
     <use xlink:href="#DejaVuSans-6f" transform="translate(497.265625 0)"/>
     <use xlink:href="#DejaVuSans-73" transform="translate(558.447266 0)"/>
     <use xlink:href="#DejaVuSans-74" transform="translate(610.546875 0)"/>
     <use xlink:href="#DejaVuSans-3a" transform="translate(649.755859 0)"/>
     <use xlink:href="#DejaVuSans-20" transform="translate(683.447266 0)"/>
     <use xlink:href="#DejaVuSans-31" transform="translate(715.234375 0)"/>
     <use xlink:href="#DejaVuSans-39" transform="translate(778.857422 0)"/>
     <use xlink:href="#DejaVuSans-31" transform="translate(842.480469 0)"/>
     <use xlink:href="#DejaVuSans-2e" transform="translate(906.103516 0)"/>
     <use xlink:href="#DejaVuSans-37" transform="translate(937.890625 0)"/>
     <use xlink:href="#DejaVuSans-30" transform="translate(1001.513672 0)"/>
    </g>
    <!-- Total Time: 16.03 seconds -->
    <g transform="translate(541.6855 502.7835) scale(0.12 -0.12)">
     <defs>
      <path id="DejaVuSans-54" d="M -19 4666 
L 3928 4666 
L 3928 4134 
L 2272 4134 
L 2272 0 
L 1638 0 
L 1638 4134 
L -19 4134 
L -19 4666 
z
" transform="scale(0.015625)"/>
      <path id="DejaVuSans-63" d="M 3122 3366 
L 3122 2828 
Q 2878 2963 2633 3030 
Q 2388 3097 2138 3097 
Q 1578 3097 1268 2742 
Q 959 2388 959 1747 
Q 959 1106 1268 751 
Q 1578 397 2138 397 
Q 2388 397 2633 464 
Q 2878 531 3122 666 
L 3122 134 
Q 2881 22 2623 -34 
Q 2366 -91 2075 -91 
Q 1284 -91 818 406 
Q 353 903 353 1747 
Q 353 2603 823 3093 
Q 1294 3584 2113 3584 
Q 2378 3584 2631 3529 
Q 2884 3475 3122 3366 
z
" transform="scale(0.015625)"/>
     </defs>
     <use xlink:href="#DejaVuSans-54"/>
     <use xlink:href="#DejaVuSans-6f" transform="translate(44.083984 0)"/>
     <use xlink:href="#DejaVuSans-74" transform="translate(105.265625 0)"/>
     <use xlink:href="#DejaVuSans-61" transform="translate(144.474609 0)"/>
     <use xlink:href="#DejaVuSans-6c" transform="translate(205.753906 0)"/>
     <use xlink:href="#DejaVuSans-20" transform="translate(233.537109 0)"/>
     <use xlink:href="#DejaVuSans-54" transform="translate(265.324219 0)"/>
     <use xlink:href="#DejaVuSans-69" transform="translate(323.283203 0)"/>
     <use xlink:href="#DejaVuSans-6d" transform="translate(351.066406 0)"/>
     <use xlink:href="#DejaVuSans-65" transform="translate(448.478516 0)"/>
     <use xlink:href="#DejaVuSans-3a" transform="translate(510.001953 0)"/>
     <use xlink:href="#DejaVuSans-20" transform="translate(543.693359 0)"/>
     <use xlink:href="#DejaVuSans-31" transform="translate(575.480469 0)"/>
     <use xlink:href="#DejaVuSans-36" transform="translate(639.103516 0)"/>
     <use xlink:href="#DejaVuSans-2e" transform="translate(702.726562 0)"/>
     <use xlink:href="#DejaVuSans-30" transform="translate(734.513672 0)"/>
     <use xlink:href="#DejaVuSans-33" transform="translate(798.136719 0)"/>
     <use xlink:href="#DejaVuSans-20" transform="translate(861.759766 0)"/>
     <use xlink:href="#DejaVuSans-73" transform="translate(893.546875 0)"/>
     <use xlink:href="#DejaVuSans-65" transform="translate(945.646484 0)"/>
     <use xlink:href="#DejaVuSans-63" transform="translate(1007.169922 0)"/>
     <use xlink:href="#DejaVuSans-6f" transform="translate(1062.150391 0)"/>
     <use xlink:href="#DejaVuSans-6e" transform="translate(1123.332031 0)"/>
     <use xlink:href="#DejaVuSans-64" transform="translate(1186.710938 0)"/>
     <use xlink:href="#DejaVuSans-73" transform="translate(1250.1875 0)"/>
    </g>
    <!--  -->
    <g transform="translate(541.6855 516.220875) scale(0.12 -0.12)"/>
   </g>
   <g id="text_45">
    <!-- B&amp;P Solution for VRPTW on dataset C107 -->
    <g transform="translate(142.8 22.32) scale(0.16 -0.16)">
     <defs>
      <path id="DejaVuSans-42" d="M 1259 2228 
L 1259 519 
L 2272 519 
Q 2781 519 3026 730 
Q 3272 941 3272 1375 
Q 3272 1813 3026 2020 
Q 2781 2228 2272 2228 
L 1259 2228 
z
M 1259 4147 
L 1259 2741 
L 2194 2741 
Q 2656 2741 2882 2914 
Q 3109 3088 3109 3444 
Q 3109 3797 2882 3972 
Q 2656 4147 2194 4147 
L 1259 4147 
z
M 628 4666 
L 2241 4666 
Q 2963 4666 3353 4366 
Q 3744 4066 3744 3513 
Q 3744 3084 3544 2831 
Q 3344 2578 2956 2516 
Q 3422 2416 3680 2098 
Q 3938 1781 3938 1306 
Q 3938 681 3513 340 
Q 3088 0 2303 0 
L 628 0 
L 628 4666 
z
" transform="scale(0.015625)"/>
      <path id="DejaVuSans-26" d="M 1556 2509 
Q 1272 2256 1139 2004 
Q 1006 1753 1006 1478 
Q 1006 1022 1337 719 
Q 1669 416 2169 416 
Q 2466 416 2725 514 
Q 2984 613 3213 813 
L 1556 2509 
z
M 1997 2859 
L 3584 1234 
Q 3769 1513 3872 1830 
Q 3975 2147 3994 2503 
L 4575 2503 
Q 4538 2091 4375 1687 
Q 4213 1284 3922 891 
L 4794 0 
L 4006 0 
L 3559 459 
Q 3234 181 2878 45 
Q 2522 -91 2113 -91 
Q 1359 -91 881 339 
Q 403 769 403 1441 
Q 403 1841 612 2192 
Q 822 2544 1241 2853 
Q 1091 3050 1012 3245 
Q 934 3441 934 3628 
Q 934 4134 1281 4442 
Q 1628 4750 2203 4750 
Q 2463 4750 2720 4694 
Q 2978 4638 3244 4525 
L 3244 3956 
Q 2972 4103 2725 4179 
Q 2478 4256 2266 4256 
Q 1938 4256 1733 4082 
Q 1528 3909 1528 3634 
Q 1528 3475 1620 3314 
Q 1713 3153 1997 2859 
z
" transform="scale(0.015625)"/>
      <path id="DejaVuSans-50" d="M 1259 4147 
L 1259 2394 
L 2053 2394 
Q 2494 2394 2734 2622 
Q 2975 2850 2975 3272 
Q 2975 3691 2734 3919 
Q 2494 4147 2053 4147 
L 1259 4147 
z
M 628 4666 
L 2053 4666 
Q 2838 4666 3239 4311 
Q 3641 3956 3641 3272 
Q 3641 2581 3239 2228 
Q 2838 1875 2053 1875 
L 1259 1875 
L 1259 0 
L 628 0 
L 628 4666 
z
" transform="scale(0.015625)"/>
      <path id="DejaVuSans-53" d="M 3425 4513 
L 3425 3897 
Q 3066 4069 2747 4153 
Q 2428 4238 2131 4238 
Q 1616 4238 1336 4038 
Q 1056 3838 1056 3469 
Q 1056 3159 1242 3001 
Q 1428 2844 1947 2747 
L 2328 2669 
Q 3034 2534 3370 2195 
Q 3706 1856 3706 1288 
Q 3706 609 3251 259 
Q 2797 -91 1919 -91 
Q 1588 -91 1214 -16 
Q 841 59 441 206 
L 441 856 
Q 825 641 1194 531 
Q 1563 422 1919 422 
Q 2459 422 2753 634 
Q 3047 847 3047 1241 
Q 3047 1584 2836 1778 
Q 2625 1972 2144 2069 
L 1759 2144 
Q 1053 2284 737 2584 
Q 422 2884 422 3419 
Q 422 4038 858 4394 
Q 1294 4750 2059 4750 
Q 2388 4750 2728 4690 
Q 3069 4631 3425 4513 
z
" transform="scale(0.015625)"/>
      <path id="DejaVuSans-75" d="M 544 1381 
L 544 3500 
L 1119 3500 
L 1119 1403 
Q 1119 906 1312 657 
Q 1506 409 1894 409 
Q 2359 409 2629 706 
Q 2900 1003 2900 1516 
L 2900 3500 
L 3475 3500 
L 3475 0 
L 2900 0 
L 2900 538 
Q 2691 219 2414 64 
Q 2138 -91 1772 -91 
Q 1169 -91 856 284 
Q 544 659 544 1381 
z
M 1991 3584 
L 1991 3584 
z
" transform="scale(0.015625)"/>
      <path id="DejaVuSans-66" d="M 2375 4863 
L 2375 4384 
L 1825 4384 
Q 1516 4384 1395 4259 
Q 1275 4134 1275 3809 
L 1275 3500 
L 2222 3500 
L 2222 3053 
L 1275 3053 
L 1275 0 
L 697 0 
L 697 3053 
L 147 3053 
L 147 3500 
L 697 3500 
L 697 3744 
Q 697 4328 969 4595 
Q 1241 4863 1831 4863 
L 2375 4863 
z
" transform="scale(0.015625)"/>
      <path id="DejaVuSans-56" d="M 1831 0 
L 50 4666 
L 709 4666 
L 2188 738 
L 3669 4666 
L 4325 4666 
L 2547 0 
L 1831 0 
z
" transform="scale(0.015625)"/>
      <path id="DejaVuSans-52" d="M 2841 2188 
Q 3044 2119 3236 1894 
Q 3428 1669 3622 1275 
L 4263 0 
L 3584 0 
L 2988 1197 
Q 2756 1666 2539 1819 
Q 2322 1972 1947 1972 
L 1259 1972 
L 1259 0 
L 628 0 
L 628 4666 
L 2053 4666 
Q 2853 4666 3247 4331 
Q 3641 3997 3641 3322 
Q 3641 2881 3436 2590 
Q 3231 2300 2841 2188 
z
M 1259 4147 
L 1259 2491 
L 2053 2491 
Q 2509 2491 2742 2702 
Q 2975 2913 2975 3322 
Q 2975 3731 2742 3939 
Q 2509 4147 2053 4147 
L 1259 4147 
z
" transform="scale(0.015625)"/>
      <path id="DejaVuSans-57" d="M 213 4666 
L 850 4666 
L 1831 722 
L 2809 4666 
L 3519 4666 
L 4500 722 
L 5478 4666 
L 6119 4666 
L 4947 0 
L 4153 0 
L 3169 4050 
L 2175 0 
L 1381 0 
L 213 4666 
z
" transform="scale(0.015625)"/>
     </defs>
     <use xlink:href="#DejaVuSans-42"/>
     <use xlink:href="#DejaVuSans-26" transform="translate(68.603516 0)"/>
     <use xlink:href="#DejaVuSans-50" transform="translate(146.582031 0)"/>
     <use xlink:href="#DejaVuSans-20" transform="translate(206.884766 0)"/>
     <use xlink:href="#DejaVuSans-53" transform="translate(238.671875 0)"/>
     <use xlink:href="#DejaVuSans-6f" transform="translate(302.148438 0)"/>
     <use xlink:href="#DejaVuSans-6c" transform="translate(363.330078 0)"/>
     <use xlink:href="#DejaVuSans-75" transform="translate(391.113281 0)"/>
     <use xlink:href="#DejaVuSans-74" transform="translate(454.492188 0)"/>
     <use xlink:href="#DejaVuSans-69" transform="translate(493.701172 0)"/>
     <use xlink:href="#DejaVuSans-6f" transform="translate(521.484375 0)"/>
     <use xlink:href="#DejaVuSans-6e" transform="translate(582.666016 0)"/>
     <use xlink:href="#DejaVuSans-20" transform="translate(646.044922 0)"/>
     <use xlink:href="#DejaVuSans-66" transform="translate(677.832031 0)"/>
     <use xlink:href="#DejaVuSans-6f" transform="translate(713.037109 0)"/>
     <use xlink:href="#DejaVuSans-72" transform="translate(774.21875 0)"/>
     <use xlink:href="#DejaVuSans-20" transform="translate(815.332031 0)"/>
     <use xlink:href="#DejaVuSans-56" transform="translate(847.119141 0)"/>
     <use xlink:href="#DejaVuSans-52" transform="translate(915.527344 0)"/>
     <use xlink:href="#DejaVuSans-50" transform="translate(985.009766 0)"/>
     <use xlink:href="#DejaVuSans-54" transform="translate(1045.3125 0)"/>
     <use xlink:href="#DejaVuSans-57" transform="translate(1106.396484 0)"/>
     <use xlink:href="#DejaVuSans-20" transform="translate(1205.273438 0)"/>
     <use xlink:href="#DejaVuSans-6f" transform="translate(1237.060547 0)"/>
     <use xlink:href="#DejaVuSans-6e" transform="translate(1298.242188 0)"/>
     <use xlink:href="#DejaVuSans-20" transform="translate(1361.621094 0)"/>
     <use xlink:href="#DejaVuSans-64" transform="translate(1393.408203 0)"/>
     <use xlink:href="#DejaVuSans-61" transform="translate(1456.884766 0)"/>
     <use xlink:href="#DejaVuSans-74" transform="translate(1518.164062 0)"/>
     <use xlink:href="#DejaVuSans-61" transform="translate(1557.373047 0)"/>
     <use xlink:href="#DejaVuSans-73" transform="translate(1618.652344 0)"/>
     <use xlink:href="#DejaVuSans-65" transform="translate(1670.751953 0)"/>
     <use xlink:href="#DejaVuSans-74" transform="translate(1732.275391 0)"/>
     <use xlink:href="#DejaVuSans-20" transform="translate(1771.484375 0)"/>
     <use xlink:href="#DejaVuSans-43" transform="translate(1803.271484 0)"/>
     <use xlink:href="#DejaVuSans-31" transform="translate(1873.095703 0)"/>
     <use xlink:href="#DejaVuSans-30" transform="translate(1936.71875 0)"/>
     <use xlink:href="#DejaVuSans-37" transform="translate(2000.341797 0)"/>
    </g>
   </g>
   <g id="PathCollection_1">
    <defs>
     <path id="m5c185e19bd" d="M 0 5 
C 1.326016 5 2.597899 4.473168 3.535534 3.535534 
C 4.473168 2.597899 5 1.326016 5 0 
C 5 -1.326016 4.473168 -2.597899 3.535534 -3.535534 
C 2.597899 -4.473168 1.326016 -5 0 -5 
C -1.326016 -5 -2.597899 -4.473168 -3.535534 -3.535534 
C -4.473168 -2.597899 -5 -1.326016 -5 0 
C -5 1.326016 -4.473168 2.597899 -3.535534 3.535534 
C -2.597899 4.473168 -1.326016 5 0 5 
z
" style="stroke: #000000"/>
    </defs>
    <g clip-path="url(#pfcab1ab18b)">
     <use xlink:href="#m5c185e19bd" x="465.336212" y="507.616364" style="stroke: #000000"/>
    </g>
   </g>
   <g id="PathCollection_2">
    <defs>
     <path id="m547a278dbc" d="M 0 3.535534 
C 0.937635 3.535534 1.836992 3.163008 2.5 2.5 
C 3.163008 1.836992 3.535534 0.937635 3.535534 0 
C 3.535534 -0.937635 3.163008 -1.836992 2.5 -2.5 
C 1.836992 -3.163008 0.937635 -3.535534 0 -3.535534 
C -0.937635 -3.535534 -1.836992 -3.163008 -2.5 -2.5 
C -3.163008 -1.836992 -3.535534 -0.937635 -3.535534 0 
C -3.535534 0.937635 -3.163008 1.836992 -2.5 2.5 
C -1.836992 3.163008 -0.937635 3.535534 0 3.535534 
z
" style="stroke: #808080"/>
    </defs>
    <g clip-path="url(#pfcab1ab18b)">
     <use xlink:href="#m547a278dbc" x="544.046818" y="272.858961" style="fill: #808080; stroke: #808080"/>
     <use xlink:href="#m547a278dbc" x="544.046818" y="246.774805" style="fill: #808080; stroke: #808080"/>
     <use xlink:href="#m547a278dbc" x="496.820455" y="298.943117" style="fill: #808080; stroke: #808080"/>
     <use xlink:href="#m547a278dbc" x="496.820455" y="272.858961" style="fill: #808080; stroke: #808080"/>
     <use xlink:href="#m547a278dbc" x="496.820455" y="311.985195" style="fill: #808080; stroke: #808080"/>
     <use xlink:href="#m547a278dbc" x="465.336212" y="259.816883" style="fill: #808080; stroke: #808080"/>
     <use xlink:href="#m547a278dbc" x="465.336212" y="298.943117" style="fill: #808080; stroke: #808080"/>
     <use xlink:href="#m547a278dbc" x="433.85197" y="272.858961" style="fill: #808080; stroke: #808080"/>
     <use xlink:href="#m547a278dbc" x="433.85197" y="246.774805" style="fill: #808080; stroke: #808080"/>
     <use xlink:href="#m547a278dbc" x="386.625606" y="298.943117" style="fill: #808080; stroke: #808080"/>
     <use xlink:href="#m547a278dbc" x="386.625606" y="259.816883" style="fill: #808080; stroke: #808080"/>
     <use xlink:href="#m547a278dbc" x="229.204394" y="51.143636" style="fill: #808080; stroke: #808080"/>
     <use xlink:href="#m547a278dbc" x="181.97803" y="181.564416" style="fill: #808080; stroke: #808080"/>
     <use xlink:href="#m547a278dbc" x="181.97803" y="51.143636" style="fill: #808080; stroke: #808080"/>
     <use xlink:href="#m547a278dbc" x="150.493788" y="116.354026" style="fill: #808080; stroke: #808080"/>
     <use xlink:href="#m547a278dbc" x="150.493788" y="51.143636" style="fill: #808080; stroke: #808080"/>
     <use xlink:href="#m547a278dbc" x="119.009545" y="181.564416" style="fill: #808080; stroke: #808080"/>
     <use xlink:href="#m547a278dbc" x="71.783182" y="181.564416" style="fill: #808080; stroke: #808080"/>
     <use xlink:href="#m547a278dbc" x="71.783182" y="116.354026" style="fill: #808080; stroke: #808080"/>
     <use xlink:href="#m547a278dbc" x="307.915" y="507.616364" style="fill: #808080; stroke: #808080"/>
     <use xlink:href="#m547a278dbc" x="307.915" y="481.532208" style="fill: #808080; stroke: #808080"/>
     <use xlink:href="#m547a278dbc" x="276.430758" y="481.532208" style="fill: #808080; stroke: #808080"/>
     <use xlink:href="#m547a278dbc" x="276.430758" y="442.405974" style="fill: #808080; stroke: #808080"/>
     <use xlink:href="#m547a278dbc" x="229.204394" y="507.616364" style="fill: #808080; stroke: #808080"/>
     <use xlink:href="#m547a278dbc" x="229.204394" y="481.532208" style="fill: #808080; stroke: #808080"/>
    </g>
   </g>
   <g id="legend_1">
    <g id="patch_36">
     <path d="M 602.0345 125.98875 
L 704.973875 125.98875 
Q 707.373875 125.98875 707.373875 123.58875 
L 707.373875 36.72 
Q 707.373875 34.32 704.973875 34.32 
L 602.0345 34.32 
Q 599.6345 34.32 599.6345 36.72 
L 599.6345 123.58875 
Q 599.6345 125.98875 602.0345 125.98875 
z
" style="fill: #ffffff; opacity: 0.8; stroke: #cccccc; stroke-linejoin: miter"/>
    </g>
    <g id="PathCollection_3">
     <g>
      <use xlink:href="#m5c185e19bd" x="616.4345" y="45.088125" style="stroke: #000000"/>
     </g>
    </g>
    <g id="text_46">
     <!-- Depot -->
     <g transform="translate(638.0345 48.238125) scale(0.12 -0.12)">
      <use xlink:href="#DejaVuSans-44"/>
      <use xlink:href="#DejaVuSans-65" transform="translate(77.001953 0)"/>
      <use xlink:href="#DejaVuSans-70" transform="translate(138.525391 0)"/>
      <use xlink:href="#DejaVuSans-6f" transform="translate(202.001953 0)"/>
      <use xlink:href="#DejaVuSans-74" transform="translate(263.183594 0)"/>
     </g>
    </g>
    <g id="PathCollection_4">
     <g>
      <use xlink:href="#m547a278dbc" x="616.4345" y="62.701875" style="fill: #808080; stroke: #808080"/>
     </g>
    </g>
    <g id="text_47">
     <!-- Customers -->
     <g transform="translate(638.0345 65.851875) scale(0.12 -0.12)">
      <use xlink:href="#DejaVuSans-43"/>
      <use xlink:href="#DejaVuSans-75" transform="translate(69.824219 0)"/>
      <use xlink:href="#DejaVuSans-73" transform="translate(133.203125 0)"/>
      <use xlink:href="#DejaVuSans-74" transform="translate(185.302734 0)"/>
      <use xlink:href="#DejaVuSans-6f" transform="translate(224.511719 0)"/>
      <use xlink:href="#DejaVuSans-6d" transform="translate(285.693359 0)"/>
      <use xlink:href="#DejaVuSans-65" transform="translate(383.105469 0)"/>
      <use xlink:href="#DejaVuSans-72" transform="translate(444.628906 0)"/>
      <use xlink:href="#DejaVuSans-73" transform="translate(485.742188 0)"/>
     </g>
    </g>
    <g id="line2d_34">
     <path d="M 604.4345 79.265625 
L 616.4345 79.265625 
L 628.4345 79.265625 
" style="fill: none; stroke: #1f77b4; stroke-width: 2; stroke-linecap: square"/>
    </g>
    <g id="text_48">
     <!-- Route 1 -->
     <g transform="translate(638.0345 83.465625) scale(0.12 -0.12)">
      <use xlink:href="#DejaVuSans-52"/>
      <use xlink:href="#DejaVuSans-6f" transform="translate(64.982422 0)"/>
      <use xlink:href="#DejaVuSans-75" transform="translate(126.164062 0)"/>
      <use xlink:href="#DejaVuSans-74" transform="translate(189.542969 0)"/>
      <use xlink:href="#DejaVuSans-65" transform="translate(228.751953 0)"/>
      <use xlink:href="#DejaVuSans-20" transform="translate(290.275391 0)"/>
      <use xlink:href="#DejaVuSans-31" transform="translate(322.0625 0)"/>
     </g>
    </g>
    <g id="line2d_35">
     <path d="M 604.4345 96.879375 
L 616.4345 96.879375 
L 628.4345 96.879375 
" style="fill: none; stroke: #aec7e8; stroke-width: 2; stroke-linecap: square"/>
    </g>
    <g id="text_49">
     <!-- Route 2 -->
     <g transform="translate(638.0345 101.079375) scale(0.12 -0.12)">
      <use xlink:href="#DejaVuSans-52"/>
      <use xlink:href="#DejaVuSans-6f" transform="translate(64.982422 0)"/>
      <use xlink:href="#DejaVuSans-75" transform="translate(126.164062 0)"/>
      <use xlink:href="#DejaVuSans-74" transform="translate(189.542969 0)"/>
      <use xlink:href="#DejaVuSans-65" transform="translate(228.751953 0)"/>
      <use xlink:href="#DejaVuSans-20" transform="translate(290.275391 0)"/>
      <use xlink:href="#DejaVuSans-32" transform="translate(322.0625 0)"/>
     </g>
    </g>
    <g id="line2d_36">
     <path d="M 604.4345 114.493125 
L 616.4345 114.493125 
L 628.4345 114.493125 
" style="fill: none; stroke: #ff7f0e; stroke-width: 2; stroke-linecap: square"/>
    </g>
    <g id="text_50">
     <!-- Route 3 -->
     <g transform="translate(638.0345 118.693125) scale(0.12 -0.12)">
      <use xlink:href="#DejaVuSans-52"/>
      <use xlink:href="#DejaVuSans-6f" transform="translate(64.982422 0)"/>
      <use xlink:href="#DejaVuSans-75" transform="translate(126.164062 0)"/>
      <use xlink:href="#DejaVuSans-74" transform="translate(189.542969 0)"/>
      <use xlink:href="#DejaVuSans-65" transform="translate(228.751953 0)"/>
      <use xlink:href="#DejaVuSans-20" transform="translate(290.275391 0)"/>
      <use xlink:href="#DejaVuSans-33" transform="translate(322.0625 0)"/>
     </g>
    </g>
   </g>
  </g>
 </g>
 <defs>
  <clipPath id="pfcab1ab18b">
   <rect x="48.17" y="28.32" width="519.49" height="502.12"/>
  </clipPath>
 </defs>
</svg>
